<svg width="16" height="16" viewBox="0 0 16 16" fill="none" xmlns="http://www.w3.org/2000/svg">
<path d="M7.99331 1.33334C4.31331 1.33334 1.33331 4.32001 1.33331 8.00001C1.33331 11.68 4.31331 14.6667 7.99331 14.6667C11.68 14.6667 14.6666 11.68 14.6666 8.00001C14.6666 4.32001 11.68 1.33334 7.99331 1.33334ZM12.6133 5.33334H10.6466C10.438 4.50765 10.129 3.71061 9.72665 2.96001C10.9427 3.37868 11.9674 4.22116 12.6133 5.33334ZM7.99998 2.69334C8.55331 3.49334 8.98665 4.38001 9.27331 5.33334H6.72665C7.01331 4.38001 7.44665 3.49334 7.99998 2.69334ZM2.83998 9.33334C2.73331 8.90668 2.66665 8.46001 2.66665 8.00001C2.66665 7.54001 2.73331 7.09334 2.83998 6.66668H5.09331C5.03998 7.10668 4.99998 7.54668 4.99998 8.00001C4.99998 8.45334 5.03998 8.89334 5.09331 9.33334H2.83998ZM3.38665 10.6667H5.35331C5.56665 11.5 5.87331 12.3 6.27331 13.04C5.05596 12.6236 4.03053 11.7806 3.38665 10.6667ZM5.35331 5.33334H3.38665C4.03053 4.21946 5.05596 3.37639 6.27331 2.96001C5.87093 3.71061 5.56197 4.50765 5.35331 5.33334ZM7.99998 13.3067C7.44665 12.5067 7.01331 11.62 6.72665 10.6667H9.27331C8.98665 11.62 8.55331 12.5067 7.99998 13.3067ZM9.55998 9.33334H6.43998C6.37998 8.89334 6.33331 8.45334 6.33331 8.00001C6.33331 7.54668 6.37998 7.10001 6.43998 6.66668H9.55998C9.61998 7.10001 9.66665 7.54668 9.66665 8.00001C9.66665 8.45334 9.61998 8.89334 9.55998 9.33334ZM9.72665 13.04C10.1266 12.3 10.4333 11.5 10.6466 10.6667H12.6133C11.9674 11.7789 10.9427 12.6213 9.72665 13.04ZM10.9066 9.33334C10.96 8.89334 11 8.45334 11 8.00001C11 7.54668 10.96 7.10668 10.9066 6.66668H13.16C13.2666 7.09334 13.3333 7.54001 13.3333 8.00001C13.3333 8.46001 13.2666 8.90668 13.16 9.33334H10.9066Z" fill="#006749"/>
</svg>
