<svg width="32" height="32" viewBox="0 0 32 32" fill="none" xmlns="http://www.w3.org/2000/svg">
<rect width="32" height="32" rx="16" fill="#006749"/>
<path d="M16 18C16.5555 18 17.0278 17.8055 17.4167 17.4167C17.8055 17.0278 18 16.5555 18 16C18 15.4444 17.8055 14.9722 17.4167 14.5833C17.0278 14.1944 16.5555 14 16 14C15.4444 14 14.9722 14.1944 14.5833 14.5833C14.1944 14.9722 14 15.4444 14 16C14 16.5555 14.1944 17.0278 14.5833 17.4167C14.9722 17.8055 15.4444 18 16 18ZM16 19.3333C15.0778 19.3333 14.2915 19.0082 13.6413 18.358C12.9911 17.7078 12.6662 16.9218 12.6667 16C12.6667 15.0778 12.9918 14.2915 13.642 13.6413C14.2922 12.9911 15.0782 12.6662 16 12.6667C16.9222 12.6667 17.7084 12.9918 18.3587 13.642C19.0089 14.2922 19.3338 15.0782 19.3333 16C19.3333 16.9222 19.0082 17.7084 18.358 18.3587C17.7078 19.0089 16.9218 19.3338 16 19.3333ZM9.33333 16.6667C9.14444 16.6667 8.98599 16.6027 8.85799 16.4747C8.72999 16.3467 8.66621 16.1884 8.66666 16C8.66666 15.8111 8.73066 15.6527 8.85866 15.5247C8.98666 15.3967 9.14488 15.3329 9.33333 15.3333H10.6667C10.8555 15.3333 11.014 15.3973 11.142 15.5253C11.27 15.6533 11.3338 15.8115 11.3333 16C11.3333 16.1889 11.2693 16.3473 11.1413 16.4753C11.0133 16.6033 10.8551 16.6671 10.6667 16.6667H9.33333ZM21.3333 16.6667C21.1444 16.6667 20.986 16.6027 20.858 16.4747C20.73 16.3467 20.6662 16.1884 20.6667 16C20.6667 15.8111 20.7307 15.6527 20.8587 15.5247C20.9867 15.3967 21.1449 15.3329 21.3333 15.3333H22.6667C22.8555 15.3333 23.014 15.3973 23.142 15.5253C23.27 15.6533 23.3338 15.8115 23.3333 16C23.3333 16.1889 23.2693 16.3473 23.1413 16.4753C23.0133 16.6033 22.8551 16.6671 22.6667 16.6667H21.3333ZM16 11.3333C15.8111 11.3333 15.6527 11.2693 15.5247 11.1413C15.3967 11.0133 15.3329 10.8551 15.3333 10.6667V9.33333C15.3333 9.14444 15.3973 8.98599 15.5253 8.85799C15.6533 8.72999 15.8115 8.66621 16 8.66666C16.1889 8.66666 16.3473 8.73066 16.4753 8.85866C16.6033 8.98666 16.6671 9.14488 16.6667 9.33333V10.6667C16.6667 10.8555 16.6027 11.014 16.4747 11.142C16.3467 11.27 16.1884 11.3338 16 11.3333ZM16 23.3333C15.8111 23.3333 15.6527 23.2693 15.5247 23.1413C15.3967 23.0133 15.3329 22.8551 15.3333 22.6667V21.3333C15.3333 21.1444 15.3973 20.986 15.5253 20.858C15.6533 20.73 15.8115 20.6662 16 20.6667C16.1889 20.6667 16.3473 20.7307 16.4753 20.8587C16.6033 20.9867 16.6671 21.1449 16.6667 21.3333V22.6667C16.6667 22.8555 16.6027 23.014 16.4747 23.142C16.3467 23.27 16.1884 23.3338 16 23.3333ZM11.7667 12.7L11.05 12C10.9167 11.8778 10.8527 11.7222 10.858 11.5333C10.8633 11.3444 10.9273 11.1833 11.05 11.05C11.1833 10.9167 11.3444 10.85 11.5333 10.85C11.7222 10.85 11.8778 10.9167 12 11.05L12.7 11.7667C12.8222 11.9 12.8833 12.0555 12.8833 12.2333C12.8833 12.4111 12.8222 12.5667 12.7 12.7C12.5778 12.8333 12.4251 12.8973 12.242 12.892C12.0589 12.8867 11.9004 12.8227 11.7667 12.7ZM20 20.95L19.3 20.2333C19.1778 20.1 19.1167 19.9415 19.1167 19.758C19.1167 19.5744 19.1778 19.4218 19.3 19.3C19.4222 19.1667 19.5751 19.1029 19.7587 19.1087C19.9422 19.1144 20.1004 19.1782 20.2333 19.3L20.95 20C21.0833 20.1222 21.1473 20.2778 21.142 20.4667C21.1367 20.6555 21.0727 20.8167 20.95 20.95C20.8167 21.0833 20.6555 21.15 20.4667 21.15C20.2778 21.15 20.1222 21.0833 20 20.95ZM19.3 12.7C19.1667 12.5778 19.1027 12.4251 19.108 12.242C19.1133 12.0589 19.1773 11.9004 19.3 11.7667L20 11.05C20.1222 10.9167 20.2778 10.8527 20.4667 10.858C20.6555 10.8633 20.8167 10.9273 20.95 11.05C21.0833 11.1833 21.15 11.3444 21.15 11.5333C21.15 11.7222 21.0833 11.8778 20.95 12L20.2333 12.7C20.1 12.8222 19.9444 12.8833 19.7667 12.8833C19.5889 12.8833 19.4333 12.8222 19.3 12.7ZM11.05 20.95C10.9167 20.8167 10.85 20.6555 10.85 20.4667C10.85 20.2778 10.9167 20.1222 11.05 20L11.7667 19.3C11.9 19.1778 12.0582 19.1167 12.2413 19.1167C12.4244 19.1167 12.5773 19.1778 12.7 19.3C12.8333 19.4222 12.8973 19.5751 12.892 19.7587C12.8867 19.9422 12.8227 20.1004 12.7 20.2333L12 20.95C11.8778 21.0833 11.7222 21.1473 11.5333 21.142C11.3444 21.1367 11.1833 21.0727 11.05 20.95Z" fill="white"/>
</svg>
