<?xml version="1.0" encoding="UTF-8"?>
<svg id="Layer_2" data-name="Layer 2" xmlns="http://www.w3.org/2000/svg" viewBox="0 0 69.58 43">
  <defs>
    <style>
      .cls-1 {
        fill: #006548;
      }

      .cls-2 {
        fill: #84c872;
      }

      .cls-3 {
        fill: #cddb00;
      }

      .cls-4 {
        fill: #a8a8a7;
      }

      .cls-5 {
        fill: #3dae2b;
      }

      .cls-6 {
        fill: #308369;
      }
    </style>
  </defs>
  <g id="Layer_1-2" data-name="Layer 1">
    <g>
      <g>
        <path class="cls-5" d="m46.72,14.62c.37,0,.66-.31.66-.69s-.3-.69-.66-.69-.67.31-.67.69.3.69.67.69Zm11.33,0c.37,0,.67-.31.67-.69s-.3-.69-.67-.69-.67.31-.67.69.3.69.67.69Zm1.74,0c.37,0,.67-.31.67-.69s-.3-.69-.67-.69-.67.31-.67.69.3.69.67.69Zm-6.91,7.48h0s9.02,0,9.02,0v-4.2s0-.01,0-.02c0-.89-.23-1.57-.68-2.03-.46-.46-1.01-.69-1.67-.69h-2.41v2.41s0,.05,0,.08c0,.84.21,1.51.62,2,.41.49.97.74,1.66.74h0s1.59,0,1.59,0v.91h-8.12c-.46-.02-.81-.21-1.03-.56-.24-.38-.36-.85-.36-1.42,0,0,0-.02,0-.03v-.5h0v-5.57h-.89v6.04s0,.05,0,.08c0,.84.21,1.51.62,2,.41.49.97.74,1.66.74Zm6.54-2.48h0c-.46-.03-.81-.21-1.03-.57-.24-.38-.36-.85-.36-1.42v-1.69h1.52s0,0,.02,0h0c.57.01.97.26,1.21.74.15.31.22.71.23,1.2h0v1.74h-1.59Zm8.2-1.73v-.02c0-.89-.23-1.57-.68-2.03-.45-.46-1.01-.69-1.67-.69h-2.41v2.41s0,.05,0,.08c0,.84.21,1.51.62,2,.41.49.96.74,1.66.74h0s1.59,0,1.59,0v.91h-3.87v.78h4.76v-4.2Zm-.9-.02v1.74h-1.59c-.46-.03-.81-.21-1.03-.57-.24-.38-.36-.85-.36-1.42,0-.01,0-.02,0-.03v-1.66h1.52s0,0,.01,0h0c.57.01.97.26,1.21.74.15.31.22.71.23,1.2h0Zm-1.44,7.59c-.45.46-.68,1.13-.68,2.03,0,0,0,.01,0,.02v1.07h0v1.76s0,.06,0,.09c0,0,0,.01,0,.02v1.07h0v.19h.89v-.19h0v-1.09h0c0-.49.08-.89.23-1.2.24-.48.64-.72,1.21-.74h0s.01,0,.02,0h0s2.41,0,2.41,0v-.78h-2.41c-.56,0-1.04.17-1.46.5v-.73h0c0-.49.08-.89.23-1.2.24-.48.64-.72,1.21-.73h0s0,0,0,0c0,0,.01,0,.02,0h0s2.41,0,2.41,0v-.78h-2.41c-.66,0-1.22.23-1.67.69Zm-4-.69h-2.41v2.41s0,.05,0,.08c0,.03,0,.06,0,.1v4.35h.89v-2.17c.37.31.83.47,1.39.47h1.59v1.7h.9v-4.22c0-.89-.23-1.57-.68-2.03-.46-.46-1.01-.69-1.67-.69Zm1.46,2.72v1.74h-1.59c-.46-.03-.81-.21-1.03-.57-.24-.38-.36-.85-.36-1.41v-1.7h1.52s.01,0,.02,0h0c.57.01.97.26,1.21.74.15.31.23.71.23,1.2h0Zm5.73-14.26v8.86h.89v-8.86h-.89Zm-16.47,11.88h-.89v3.3h0v.53c0,.57-.12,1.04-.36,1.42-.22.35-.57.54-1.03.56h0s-.4,0-.4,0v-4.83h-.89v4.83h-.44c-.46-.03-.81-.21-1.03-.57-.24-.38-.36-.85-.36-1.42,0-.01,0-.02,0-.03v-.5h0v-3.3h-.89v3.77s0,.05,0,.08c0,.84.21,1.51.62,2,.41.49.96.74,1.66.75h1.74c.7,0,1.25-.25,1.66-.75.41-.5.62-1.16.62-2,0-.03,0-.05,0-.08v-3.77Zm-9.48-.34h-2.41v2.41s0,.05,0,.08c0,.03,0,.06,0,.1v4.35h.89v-2.17c.37.31.83.47,1.39.47h1.58v1.7h.9v-4.21s0-.01,0-.02c0-.89-.23-1.57-.68-2.03-.46-.46-1.01-.69-1.67-.69Zm1.46,2.72v1.74h-1.58c-.47-.03-.81-.21-1.03-.57-.24-.38-.35-.84-.36-1.41v-1.7h1.52s.01,0,.02,0h0c.57.01.97.26,1.21.74.15.31.22.71.23,1.2h0Zm13.63.02s0-.01,0-.02c0-.89-.23-1.57-.68-2.03-.45-.46-1.01-.69-1.67-.69h-2.41v4.11s0,.05,0,.08c0,.84.21,1.51.62,2,.41.49.96.74,1.66.75h3.13v-.78h-.65v-3.43Zm-.9-.02v3.44h-1.58c-.47-.03-.81-.21-1.03-.57-.24-.38-.36-.85-.36-1.42v-3.39h1.52s.01,0,.02,0h0c.57.01.97.26,1.21.74.15.31.23.71.23,1.2h0Zm-14.31-5.39h0s7.27,0,7.27,0v-4.2s0-.01,0-.02c0-.89-.23-1.57-.68-2.03-.45-.46-1.01-.69-1.67-.69h-2.41v2.41s0,.05,0,.08c0,.84.21,1.51.62,2,.41.49.96.74,1.66.74h0s1.59,0,1.59,0v.91h-6.38c-.46-.02-.81-.21-1.03-.56-.24-.38-.36-.85-.36-1.42,0,0,0-.02,0-.03v-.5h0v-3.3h-.89v3.77s0,.05,0,.08c0,.84.21,1.51.62,2,.41.49.97.74,1.66.74Zm4.79-2.48h0c-.46-.03-.81-.21-1.03-.57-.24-.38-.36-.85-.36-1.42v-1.69h1.52s.01,0,.02,0h0c.57.01.97.26,1.21.74.15.31.22.71.23,1.2h0v1.74h-1.59Zm21.09-5.56h-.96v-.07c0-.14.02-.25.06-.34.07-.14.18-.2.34-.21h.31v-.22h-.3c-.18,0-.34.06-.47.19-.13.13-.19.32-.19.57v.07h-.38v.22h1.59v-.22Z"/>
        <path class="cls-6" d="m3.85,25.53c10.18,2.94,13.64-4.42,15.37-12.85,1.23-5.99,3.5-7.93,4.65-8.54h0C12.64,2.52,6.32,6.9,3.33,10.19l1.01-1.11C7.66,5.5,14.91.33,28.01,2.37c0,0-4.08.58-5.94,9.6-1.89,9.21-5.72,17.25-17.09,13.92l-1.14-.36Z"/>
        <path class="cls-5" d="m3.74,24.86c6.92-.07,8.04-5.65,7.92-11.6-.09-4.28,1.1-6.01,1.74-6.63h0C5.81,7.97,2.59,11.98,1.16,14.76l.48-.94c1.6-3.04,5.46-7.91,14.11-9.16,0,0-2.52,1.2-2.38,7.57.14,6.5-1.12,12.61-8.85,12.65l-.78-.02Z"/>
        <path class="cls-2" d="m3.3,24.23c4.54-1.23,4.61-5.16,3.82-9.12-.61-3.05-.09-4.21.24-4.64h0C2.49,12.66,1.01,15.81.4,17.91l.2-.71c.69-2.31,2.64-6.23,8.17-8.55,0,0-1.51,1.24-.66,5.47.87,4.32.77,8.62-4.3,9.98l-.51.12Z"/>
        <path class="cls-3" d="m4.91,16.64c-.8-2.77.08-3.74.08-3.74-1.14.71-2.01,1.5-2.67,2.31h0s0,0,0,0c-.98,1.19-1.51,2.4-1.79,3.38h0c-.09.31-.15.6-.2.86l-.09.5s-.24,1.98.92,3.19c-.75-.93-.7-2.26-.7-2.26l.04-.41c.02-.21.05-.46.1-.72h0c.16-.83.51-1.86,1.24-2.92h0s0,0,0,0c.49-.71,1.15-1.43,2.03-2.09,0,0-.66.87.19,3.08.52,1.36.86,2.75.52,3.95h0s0,0,0,0c-.42,1.32-1.27,1.78-1.72,2.02,1.23-.48,1.95-1.46,2.27-2.3h0c.54-1.41.27-3.14-.22-4.83Z"/>
        <path class="cls-1" d="m10.64,3.63l-1.87,1.04s-.02.01-.02.01l.1-.06s0,0,0,0c.06-.03.12-.06.17-.1l-.17.09c1.36-.73,15.96-8.13,31.5,1.85h0c-2.12.62-5.64,2.7-9.15,9.44-5.66,10.89-13.47,19.47-27.36,10.4l1.54,1.06c15.49,10.18,24.08.85,30.27-11.06,6.06-11.66,12.28-10.48,12.28-10.48C29.43-3.39,16.86.27,10.64,3.63Z"/>
      </g>
      <g>
        <path class="cls-4" d="m2.48,37.31H.71c-.19,0-.32,0-.38-.02-.1-.02-.18-.07-.24-.16-.06-.09-.09-.19-.09-.31,0-.25.08-.49.24-.71-.03.12-.05.22-.05.31,0,.2.06.34.18.4.02.01.06.02.12.04.09,0,.18,0,.29,0h1.65c0-.09.01-.15.01-.19,0,0,0-.04,0-.08l-.12.15h-.27c-.11,0-.19,0-.23,0-.06,0-.11-.04-.16-.1-.04-.06-.06-.13-.06-.21,0-.14.04-.29.13-.44.14-.23.29-.35.44-.35.05,0,.09.01.12.03.12.07.21.19.28.36.07.16.11.33.11.52,0,.17-.06.42-.18.74v.04Zm-.14-2.18l-.23.21-.29-.27.23-.21.29.27Zm.05,1.22c0-.1-.03-.18-.08-.26-.05-.08-.11-.11-.17-.11-.05,0-.09.02-.14.06-.07.06-.1.12-.1.19,0,.08.08.13.23.13h.27Z"/>
        <path class="cls-4" d="m3.94,37.31h-.71s-.08,0-.12-.03c-.04-.02-.06-.06-.07-.14v-.09s0-1.88,0-1.88l.36-.38v1.89c0,.07,0,.12.02.15.01.02.06.04.15.04h.37v.44Z"/>
        <path class="cls-4" d="m5.38,36.86v.44h-1.51v-.44h1.51Z"/>
        <path class="cls-4" d="m6.78,36.86v.44h-1.51v-.44h1.51Z"/>
        <path class="cls-4" d="m8.18,36.86v.44h-1.51v-.44h1.51Z"/>
        <path class="cls-4" d="m9.58,36.86v.44h-1.51v-.44h1.51Z"/>
        <path class="cls-4" d="m10.97,36.86v.44h-1.51v-.44h1.51Z"/>
        <path class="cls-4" d="m12.32,37.31h-1.46v-.44h1.41c0-.05,0-.12,0-.18,0-.04,0-.07,0-.09l-.12.15h-.27c-.11,0-.18,0-.22,0-.07,0-.12-.04-.16-.1-.04-.06-.06-.13-.06-.21,0-.14.05-.29.14-.44.14-.23.29-.35.43-.35.05,0,.09.01.12.03.12.07.21.19.28.36.07.16.11.33.11.52,0,.17-.06.42-.18.74l-.02.04Zm.05-2.17l-.23.21-.18-.17-.19.17-.29-.27.23-.2.17.16.19-.16.29.27Zm-.13,1.2c0-.1-.04-.18-.09-.26-.05-.08-.11-.11-.17-.11-.05,0-.11.03-.16.08-.05.05-.08.11-.08.17,0,.08.08.13.23.13h.27Z"/>
        <path class="cls-4" d="m13.65,37.31h-.32c-.11,0-.19,0-.23,0-.08-.01-.15-.05-.2-.11-.05-.06-.08-.14-.08-.22,0-.13.03-.27.1-.42.07-.15.16-.28.26-.4.06-.06.13-.1.21-.1.1,0,.2.07.29.2.15.22.23.49.23.79,0,.35-.12.67-.35.96-.13.16-.25.24-.35.24-.12,0-.3-.15-.53-.44.11.04.21.06.3.06.14,0,.27-.05.39-.14.12-.1.21-.23.27-.39Zm-.03-.44c-.04-.29-.12-.43-.26-.43-.06,0-.11.03-.17.09-.05.06-.08.13-.08.2,0,.09.06.14.17.14h.33Z"/>
        <path class="cls-4" d="m14.6,34.62l-.08.22c-.23.03-.41.12-.54.28.01-.11.06-.21.13-.29-.11-.03-.17-.1-.17-.21,0-.09.05-.19.14-.31.08-.09.18-.14.31-.14.08,0,.12.03.12.08,0,.05-.02.1-.06.16-.03-.01-.06-.02-.1-.02-.12,0-.21.04-.28.14.09.08.2.12.34.12.06,0,.12-.01.19-.04Zm.96.53l.35-.37v1.91c0,.08.01.13.04.14.02.02.08.03.18.03h.3v.44h-.48s-.02,0-.09,0c-.11,0-.19-.05-.24-.12-.04-.06-.06-.17-.06-.35v-.11l-.12.18-.07.1c-.08.12-.15.2-.23.24-.07.04-.16.07-.25.08-.11.01-.25.02-.43.02s-.33,0-.49-.02c.24-.07.44-.13.6-.21.12-.05.22-.1.33-.16.08-.04.16-.09.24-.15l-.02-.06c-.1-.32-.2-.56-.3-.74-.07-.12-.17-.26-.3-.42-.03.06-.06.09-.1.09-.03,0-.06-.02-.08-.06-.1-.15-.15-.26-.15-.33,0-.04.04-.11.11-.23.06-.09.11-.13.14-.13.13,0,.28.18.46.53.18.36.32.76.42,1.2l.09-.08.09-.09s.06-.07.06-.12v-.12s0-1.1,0-1.1Z"/>
        <path class="cls-4" d="m17.88,36.86v.44h-1.51v-.44h1.51Z"/>
        <path class="cls-4" d="m19.27,36.86v.44h-1.51v-.44h1.51Z"/>
        <path class="cls-4" d="m20.67,36.86v.44h-1.51v-.44h1.51Z"/>
        <path class="cls-4" d="m22.07,36.86v.44h-1.51v-.44h1.51Z"/>
        <path class="cls-4" d="m23.47,36.86v.44h-1.51v-.44h1.51Z"/>
        <path class="cls-4" d="m24.87,36.86v.44h-1.51v-.44h1.51Z"/>
        <path class="cls-4" d="m25.98,35.13l-.15.35-.08-.03.08,1.16c0,.09-.03.23-.09.42h0s-.07.21-.07.21l-.03.07h-.88v-.44h.78l-.12-1.55c-.08-.02-.12-.06-.12-.11,0-.02.01-.05.03-.08l.03-.05.17-.28c0,.07.02.12.05.15.02.02.06.04.12.07l.29.13Z"/>
        <path class="cls-4" d="m28.37,35.69l.24,1.18h.52v.44h-.79l-.06-.26-.14.2-1.01-.15.16-.49s.02-.06.04-.1c.02-.04.06-.08.13-.11l.62-.34-.02-.1.31-.27Zm-.24.62l-.52.29c-.05.03-.08.07-.09.12l.72.11-.1-.51Zm.49-1.07l-.24.21-.18-.16-.19.16-.28-.27.24-.2.17.16.19-.16.29.27Z"/>
        <path class="cls-4" d="m30.57,36.86v.44h-1.51v-.44h1.51Z"/>
        <path class="cls-4" d="m31.97,36.86v.44h-1.51v-.44h1.51Z"/>
        <path class="cls-4" d="m33.37,36.86v.44h-1.51v-.44h1.51Z"/>
        <path class="cls-4" d="m34.77,36.86v.44h-1.51v-.44h1.51Z"/>
        <path class="cls-4" d="m36.16,36.86v.44h-1.51v-.44h1.51Z"/>
        <path class="cls-4" d="m37.56,36.86v.44h-1.51v-.44h1.51Z"/>
        <path class="cls-4" d="m37.45,37.31v-.44h.55l.35-.45c.14-.18.24-.3.3-.37.08-.07.16-.11.25-.11.14,0,.27.11.39.32.12.21.18.4.18.57,0,.06-.02.13-.06.21-.03.05-.1.2-.24.44l-.02.04-1.01-.43-.15.23h-.55Zm1.69-.28c.01-.06.02-.11.02-.15,0-.17-.05-.32-.14-.44-.07-.09-.14-.13-.2-.13-.08,0-.21.13-.39.38l-.03.03.73.32Z"/>
        <path class="cls-4" d="m40.72,37.31h-.71s-.08,0-.12-.03c-.04-.02-.06-.06-.07-.14v-.09s0-1.88,0-1.88l.36-.38v1.89c0,.07,0,.12.02.15.01.02.06.04.15.04h.37v.44Z"/>
        <path class="cls-4" d="m42.16,36.86v.44h-1.51v-.44h1.51Z"/>
        <path class="cls-4" d="m43.55,36.86v.44h-1.51v-.44h1.51Z"/>
        <path class="cls-4" d="m44.95,36.86v.44h-1.51v-.44h1.51Z"/>
        <path class="cls-4" d="m46.35,36.86v.44h-1.51v-.44h1.51Z"/>
        <path class="cls-4" d="m47.75,36.86v.44h-1.51v-.44h1.51Z"/>
        <path class="cls-4" d="m49.15,36.86v.44h-1.51v-.44h1.51Z"/>
        <path class="cls-4" d="m50.54,36.86v.44h-1.51v-.44h1.51Z"/>
        <path class="cls-4" d="m52.83,36.86v.44h-1.1l-.07-.15-.13.15h-1.1v-.44h1.1c-.08-.33-.25-.5-.53-.52l.21-.46c.24-.06.44-.1.61-.1.32,0,.48.13.48.38,0,.06,0,.12-.03.17-.04.12-.14.27-.29.47l-.04.05h.88Zm-.96-.36c.07-.08.1-.14.1-.18,0-.06-.05-.09-.14-.09-.03,0-.09,0-.16.02.06.03.1.07.13.11.03.04.06.09.07.15Z"/>
        <path class="cls-4" d="m54.27,36.86v.44h-1.51v-.44h1.51Z"/>
        <path class="cls-4" d="m55.67,36.86v.44h-1.51v-.44h1.51Z"/>
        <path class="cls-4" d="m57.07,36.86v.44h-1.51v-.44h1.51Z"/>
        <path class="cls-4" d="m58.47,36.86v.44h-1.51v-.44h1.51Z"/>
        <path class="cls-4" d="m59.58,35.13l-.15.35-.08-.03.08,1.16c0,.09-.03.23-.09.42h0s-.07.21-.07.21l-.03.07h-.88v-.44h.78l-.12-1.55c-.08-.02-.12-.06-.12-.11,0-.02.01-.05.03-.08l.03-.05.17-.28c0,.07.02.12.05.15.02.02.06.04.12.07l.29.13Z"/>
        <path class="cls-4" d="m59.96,37.46c.02-.24.03-.44.03-.61,0-.22-.01-.52-.03-.9-.02-.31-.04-.54-.06-.7l.37-.46.09.55-.08.1v.05c.03.34.05.62.05.84s-.02.42-.07.58c-.03.12-.13.3-.29.54Z"/>
        <path class="cls-4" d="m62.71,37.31h-.72s-.04,0-.07,0h-.04c-.05,0-.09-.02-.12-.03-.09-.05-.13-.15-.13-.31,0-.15.07-.42.22-.84.06-.17.13-.25.22-.25.11,0,.28.09.49.27.22.18.32.34.32.5,0,.03-.03.14-.08.33l-.06.2-.05.14Zm-.13-1.98l-.23.21-.18-.16-.19.16-.28-.28.23-.2.17.16.19-.16.29.27Zm.03,1.54c0-.14-.04-.25-.09-.33-.08-.12-.19-.21-.32-.25-.02,0-.04-.01-.05-.01-.05,0-.1.05-.14.16-.04.12-.06.22-.06.28,0,.1.07.14.2.14h.46Z"/>
        <path class="cls-4" d="m63.68,36.36c.17.23.26.46.26.69s-.07.46-.21.72c-.16.3-.33.45-.51.45-.06,0-.14-.04-.23-.12-.09-.08-.18-.18-.26-.29l-.03-.05c.1.05.21.07.32.07.14,0,.27-.06.4-.17.13-.12.24-.27.32-.46-.03-.1-.07-.2-.13-.29-.05-.09-.11-.18-.17-.26l.25-.29Z"/>
        <path class="cls-4" d="m64.45,37.46c.02-.24.03-.44.03-.61,0-.22-.01-.52-.03-.9-.02-.31-.04-.54-.06-.7l.38-.46.09.55-.08.1v.05c.03.34.05.62.05.84s-.02.42-.07.58c-.03.12-.13.3-.29.54Z"/>
        <path class="cls-4" d="m65.71,35.93c.36.16.55.39.55.69,0,.12-.03.25-.08.39l-.12.3h-.93l.1-.44h.76c0-.15-.05-.27-.11-.36-.06-.09-.17-.16-.33-.23l.17-.35Z"/>
        <path class="cls-4" d="m67.03,38.05l-.08.21c-.23.03-.41.12-.54.28.02-.12.06-.21.14-.29-.12-.03-.17-.1-.17-.21,0-.09.05-.19.15-.31.08-.09.18-.14.32-.14.08,0,.12.03.12.08,0,.04-.02.09-.06.16-.04-.01-.07-.02-.1-.02-.12,0-.22.05-.29.14.09.08.2.12.34.12.05,0,.11-.01.19-.04Zm1.24-2.56l-.02.04-.19.29c-.05.08-.13.18-.23.29,0,0-.02.02-.03.04l.22.33s.06.08.09.15c.04.06.06.12.06.18,0,.05-.02.13-.05.22l-.1.28h-1.28v-.06s.09-.47.09-.47c.11-.09.23-.2.34-.31.12-.11.21-.21.28-.31-.07-.09-.16-.19-.25-.28-.09-.1-.18-.18-.27-.25-.03.07-.06.1-.1.1-.03,0-.06-.01-.08-.04-.13-.14-.2-.25-.2-.35,0-.06.03-.15.1-.27.05-.08.09-.12.13-.12.04,0,.09.03.14.08.27.27.5.55.69.85l.03.05c.16-.21.28-.43.35-.65-.05-.04-.08-.09-.08-.12,0-.03,0-.06.03-.08.02-.02.05-.06.09-.1l.2-.2s0,.07,0,.08c0,.06.04.12.12.18l.26.2-.23.31-.08-.06Zm-.67.87c-.15.17-.32.33-.51.48v.03s.82,0,.82,0h0s0-.03,0-.04c0-.02,0-.04-.02-.07l-.29-.41Z"/>
        <path class="cls-4" d="m68.83,37.46c.02-.24.03-.44.03-.61,0-.22-.01-.52-.03-.9-.02-.31-.04-.54-.06-.7l.37-.46.09.55-.08.1v.05c.03.34.05.62.05.84s-.02.42-.07.58c-.03.12-.13.3-.29.54Z"/>
        <path class="cls-4" d="m1.9,42.2s.02-.13.03-.24h-.71v-.36h1.07v1.34h-.28l-.06-.25c-.07.06-.14.11-.2.15-.06.04-.12.07-.18.09-.06.02-.12.04-.19.05-.07,0-.14.01-.22.02-.05,0-.11,0-.17-.02-.06-.01-.12-.03-.19-.05-.06-.02-.12-.05-.18-.08-.05-.03-.1-.06-.13-.09-.13-.12-.23-.26-.31-.43-.08-.17-.11-.36-.11-.59,0-.18.02-.34.07-.49.05-.15.12-.29.22-.4.1-.11.22-.21.36-.27.15-.07.32-.1.51-.11h.05c.15,0,.28.02.39.07.11.05.21.11.29.19.08.08.14.17.19.27.05.1.08.2.1.31h-.39c0-.07-.03-.13-.06-.18-.04-.06-.08-.11-.14-.15-.06-.04-.12-.08-.2-.1-.07-.02-.15-.04-.23-.04-.12,0-.23.02-.33.07-.09.05-.18.11-.24.19-.07.08-.12.17-.15.29-.03.11-.05.23-.05.37s.02.26.05.37c.04.11.09.21.15.29.07.08.15.14.24.18.1.04.2.06.33.06.09,0,.17-.01.24-.04.07-.03.14-.06.19-.1.06-.04.1-.09.14-.14.04-.05.06-.11.08-.17h0Z"/>
        <path class="cls-4" d="m3.48,42.19h0c0,.09.01.16.04.22.03.06.06.11.11.15.05.04.1.07.16.09.06.02.12.03.18.03.04,0,.08,0,.11,0,.03,0,.06,0,.09-.02.03,0,.05-.02.07-.05.02-.02.05-.05.08-.09h.39c-.08.17-.19.29-.31.37-.12.07-.29.11-.49.11-.12,0-.22-.02-.32-.06-.1-.04-.18-.1-.25-.17-.07-.08-.13-.17-.17-.29-.04-.11-.06-.25-.06-.4v-.02c0-.16.03-.29.07-.41.04-.12.1-.22.18-.3.07-.08.16-.14.25-.18.09-.04.2-.06.3-.06h.03c.12,0,.23.02.31.05.09.04.16.09.21.15.05.06.1.13.13.21.03.08.06.16.07.24.02.08.03.23.05.44h-1.23Zm.42-.77s-.09,0-.13.03c-.04.02-.08.05-.12.08-.04.04-.07.08-.09.14-.03.06-.04.12-.05.19h.82c-.01-.15-.05-.26-.11-.33-.06-.07-.15-.11-.28-.11h-.03Z"/>
        <path class="cls-4" d="m5.57,41.16h.34v.14c.14-.13.29-.19.48-.19h.03c.1,0,.18.02.25.04.07.02.12.06.17.1.05.04.08.09.11.14.03.05.04.11.06.18v1.35h-.36v-1.21c0-.09-.03-.15-.08-.2-.05-.05-.12-.07-.21-.07-.13,0-.24.05-.31.14-.07.09-.11.23-.11.41v.93h-.36v-1.76Z"/>
        <path class="cls-4" d="m8.24,42.19h0c0,.09.01.16.04.22.03.06.06.11.11.15.05.04.1.07.16.09.06.02.12.03.18.03.04,0,.08,0,.11,0,.03,0,.06,0,.09-.02.03,0,.05-.02.07-.05.02-.02.05-.05.08-.09h.39c-.08.17-.19.29-.31.37-.12.07-.29.11-.49.11-.12,0-.22-.02-.32-.06-.1-.04-.18-.1-.25-.17-.07-.08-.13-.17-.17-.29-.04-.11-.06-.25-.06-.4v-.02c0-.16.03-.29.07-.41.04-.12.1-.22.18-.3.07-.08.16-.14.25-.18.1-.04.2-.06.3-.06h.03c.12,0,.23.02.31.05.09.04.16.09.21.15.06.06.1.13.13.21.03.08.05.16.07.24.02.08.03.23.05.44h-1.23Zm.42-.77s-.09,0-.13.03c-.04.02-.08.05-.12.08-.04.04-.07.08-.09.14-.03.06-.04.12-.05.19h.82c-.01-.15-.05-.26-.11-.33-.06-.07-.15-.11-.28-.11h-.03Z"/>
        <path class="cls-4" d="m10.34,42.92v-1.76h.36v.16c.05-.06.11-.11.17-.15.06-.04.12-.06.17-.06h.2v.37c-.36,0-.54.18-.54.53v.91h-.36Z"/>
        <path class="cls-4" d="m13.34,42.62s0,.03.03.04c.02.01.04.02.06.02.02,0,.06,0,.11-.03v.3c-.1.03-.18.04-.25.04-.03,0-.06,0-.09-.02-.03-.01-.06-.03-.08-.05-.02-.02-.05-.04-.07-.07-.02-.02-.03-.05-.05-.08-.1.07-.19.12-.27.16-.08.04-.16.05-.23.05-.21,0-.36-.05-.47-.14-.11-.09-.16-.22-.16-.39v-.05c0-.09.03-.17.07-.24.04-.07.09-.12.15-.16.06-.04.14-.07.23-.1.09-.02.19-.04.31-.05.08,0,.14,0,.18-.01.05,0,.08-.01.1-.02.02,0,.04-.02.05-.03,0-.01.01-.02.01-.04v-.19s-.04-.06-.11-.09c-.07-.03-.16-.04-.28-.04-.18,0-.28.1-.29.31h-.35v-.21c.03-.07.06-.13.1-.18.04-.05.09-.1.15-.14.06-.04.13-.07.2-.09.07-.02.15-.03.23-.03.12,0,.22.01.31.03.09.02.16.05.23.09.06.04.11.08.14.13.03.05.05.1.05.15v1.11Zm-.37-.5c-.05.01-.1.03-.15.04-.05.01-.1.02-.15.03h0c-.06,0-.11.02-.16.03-.05.01-.1.02-.14.04-.04.02-.07.04-.09.07-.02.03-.03.06-.03.11h0c0,.09.02.14.07.18.04.04.1.06.18.07h.02c.06,0,.12-.01.18-.03.06-.02.11-.05.15-.08.04-.03.08-.06.11-.09.03-.03.04-.06.04-.09v-.27Z"/>
        <path class="cls-4" d="m14.41,42.92v-2.41h.36v2.41h-.36Z"/>
        <path class="cls-4" d="m17.1,42.92v-2.41h.95c.15,0,.29.03.41.09.12.06.23.14.31.25.08.11.15.23.19.38.04.15.07.31.07.48,0,.26-.05.49-.15.69-.1.19-.24.34-.42.44-.1.05-.18.08-.26.08h-1.11Zm.39-2.05v1.7h.6s.07,0,.1,0c.03,0,.06-.01.09-.03.03-.01.06-.03.09-.06.03-.02.06-.06.09-.1.04-.05.07-.1.09-.15.02-.05.04-.11.05-.16.01-.06.02-.11.02-.17,0-.06,0-.11.01-.17v-.07c0-.13-.02-.24-.05-.34-.03-.1-.07-.18-.13-.25-.06-.07-.12-.12-.2-.15-.08-.03-.16-.05-.25-.05h-.52Z"/>
        <path class="cls-4" d="m20.27,40.51v.34h-.36v-.34h.36Zm0,.65v1.76h-.36v-1.76h.36Z"/>
        <path class="cls-4" d="m21.23,42.92v-1.76h.36v.16c.05-.06.11-.11.17-.15.06-.04.12-.06.17-.06h.2v.37c-.36,0-.54.18-.54.53v.91h-.36Z"/>
        <path class="cls-4" d="m23.13,42.19h0c0,.09.01.16.04.22.03.06.06.11.11.15.05.04.1.07.16.09.06.02.12.03.18.03.04,0,.08,0,.11,0,.03,0,.06,0,.09-.02.03,0,.05-.02.07-.05.02-.02.05-.05.08-.09h.39c-.08.17-.19.29-.31.37-.13.07-.29.11-.49.11-.12,0-.23-.02-.32-.06-.1-.04-.18-.1-.25-.17-.07-.08-.13-.17-.17-.29-.04-.11-.06-.25-.06-.4v-.02c0-.16.03-.29.07-.41.04-.12.1-.22.18-.3.07-.08.16-.14.25-.18.1-.04.2-.06.3-.06h.03c.12,0,.23.02.31.05.09.04.16.09.21.15.05.06.1.13.13.21.03.08.05.16.07.24.02.08.03.23.05.44h-1.23Zm.42-.77s-.09,0-.13.03c-.04.02-.08.05-.12.08-.04.04-.07.08-.09.14-.03.06-.04.12-.05.19h.82c-.01-.15-.05-.26-.11-.33-.06-.07-.15-.11-.28-.11h-.03Z"/>
        <path class="cls-4" d="m26.63,42.25c0,.13-.03.24-.07.33-.04.09-.1.17-.16.23-.07.06-.14.11-.23.14-.09.03-.17.05-.26.05h-.04c-.13,0-.24-.03-.33-.08-.09-.05-.17-.12-.23-.2-.06-.08-.11-.18-.14-.29-.03-.11-.05-.23-.05-.35v-.05c0-.12.02-.23.06-.34.04-.11.09-.21.16-.29.07-.08.15-.15.25-.2.1-.05.21-.08.33-.08h.01c.09,0,.18.01.26.03.08.02.15.06.21.11.06.05.11.13.16.22.04.09.07.2.09.34h-.36c-.01-.07-.03-.13-.06-.18-.03-.05-.05-.08-.09-.11-.03-.03-.07-.05-.1-.06-.04-.01-.07-.02-.1-.02h0s-.1.01-.15.04c-.05.02-.1.06-.14.1-.04.05-.08.12-.1.2-.03.08-.04.19-.04.32,0,.09.01.17.03.24.02.07.05.12.09.17.04.04.08.08.13.1.05.02.1.03.16.03h.02c.06,0,.12-.02.16-.05.04-.03.08-.06.11-.1.03-.04.05-.08.06-.13.01-.04.02-.08.03-.12h.35Z"/>
        <path class="cls-4" d="m27.85,40.71v.45h.26v.34h-.26v1.11s.03.05.1.05c.06,0,.11,0,.16-.03v.33c-.05.02-.1.03-.14.03-.04,0-.08,0-.12,0h-.04s-.08,0-.12-.02c-.04-.02-.08-.04-.1-.06-.03-.03-.05-.06-.07-.09-.02-.04-.03-.07-.03-.11v-1.22h-.23v-.34h.23v-.45h.36Z"/>
        <path class="cls-4" d="m30.48,42.05c0,.15-.02.29-.06.41-.04.12-.09.22-.16.3-.07.08-.15.14-.25.18-.1.04-.21.06-.34.06-.25,0-.45-.08-.59-.24-.14-.16-.21-.4-.21-.71,0-.15.02-.29.05-.4.04-.12.09-.22.16-.3.07-.08.15-.14.25-.18.1-.04.21-.06.34-.06s.24.02.34.06c.1.04.18.1.25.18.07.08.12.18.16.3.04.12.06.25.06.4Zm-.36,0c0-.08,0-.15-.03-.22-.02-.07-.05-.13-.08-.19-.04-.05-.08-.1-.14-.13-.05-.03-.12-.05-.19-.05-.06,0-.12.01-.18.04-.05.03-.1.07-.14.12-.04.05-.07.11-.09.18-.02.07-.03.15-.03.23s.01.16.03.23c.02.07.05.13.09.19.04.05.08.09.14.12.05.03.11.04.18.04s.13-.02.18-.05c.06-.03.1-.07.14-.13.04-.05.07-.12.09-.19.02-.07.03-.15.03-.22Z"/>
        <path class="cls-4" d="m31.37,42.92v-1.76h.36v.16c.05-.06.11-.11.17-.15.06-.04.12-.06.17-.06h.2v.37c-.36,0-.54.18-.54.53v.91h-.36Z"/>
        <path class="cls-4" d="m34.37,42.62s0,.03.03.04c.02.01.04.02.06.02.02,0,.06,0,.11-.03v.3c-.1.03-.18.04-.25.04-.03,0-.06,0-.09-.02-.03-.01-.06-.03-.08-.05-.02-.02-.05-.04-.07-.07-.02-.02-.03-.05-.05-.08-.1.07-.19.12-.27.16-.08.04-.16.05-.23.05-.21,0-.36-.05-.47-.14-.11-.09-.16-.22-.16-.39v-.05c0-.09.03-.17.07-.24.04-.07.09-.12.15-.16.06-.04.14-.07.23-.1.09-.02.19-.04.31-.05.08,0,.14,0,.18-.01.05,0,.08-.01.1-.02.02,0,.04-.02.05-.03,0-.01.01-.02.01-.04v-.19s-.04-.06-.11-.09c-.07-.03-.16-.04-.28-.04-.18,0-.28.1-.29.31h-.35v-.21c.03-.07.06-.13.1-.18.04-.05.09-.1.15-.14.06-.04.13-.07.2-.09.07-.02.15-.03.23-.03.12,0,.22.01.31.03.09.02.16.05.22.09.06.04.11.08.14.13.03.05.05.1.05.15v1.11Zm-.37-.5c-.05.01-.1.03-.15.04-.05.01-.1.02-.16.03h0c-.06,0-.11.02-.16.03-.05.01-.1.02-.14.04-.04.02-.07.04-.09.07-.02.03-.03.06-.03.11h0c0,.09.02.14.07.18.04.04.1.06.18.07h.02c.06,0,.12-.01.18-.03.06-.02.11-.05.15-.08.04-.03.08-.06.11-.09.03-.03.04-.06.04-.09v-.27Z"/>
        <path class="cls-4" d="m35.8,40.71v.45h.26v.34h-.26v1.11s.03.05.1.05c.06,0,.11,0,.16-.03v.33c-.05.02-.1.03-.14.03-.04,0-.08,0-.12,0h-.04s-.08,0-.12-.02c-.04-.02-.07-.04-.1-.06-.03-.03-.05-.06-.07-.09-.02-.04-.03-.07-.03-.11v-1.22h-.23v-.34h.23v-.45h.36Z"/>
        <path class="cls-4" d="m37.19,42.19h0c0,.09.01.16.04.22.03.06.06.11.11.15.05.04.1.07.16.09.06.02.12.03.18.03.04,0,.08,0,.11,0,.03,0,.06,0,.09-.02.03,0,.05-.02.07-.05.02-.02.05-.05.08-.09h.39c-.08.17-.19.29-.31.37-.13.07-.29.11-.49.11-.12,0-.22-.02-.32-.06-.1-.04-.18-.1-.26-.17-.07-.08-.13-.17-.17-.29-.04-.11-.06-.25-.06-.4v-.02c0-.16.03-.29.07-.41.04-.12.1-.22.18-.3.07-.08.16-.14.25-.18.1-.04.2-.06.3-.06h.03c.12,0,.23.02.31.05.09.04.16.09.21.15.06.06.1.13.13.21.03.08.05.16.07.24.02.08.03.23.05.44h-1.23Zm.42-.77s-.09,0-.13.03c-.04.02-.08.05-.12.08-.04.04-.07.08-.09.14-.03.06-.04.12-.05.19h.82c-.01-.15-.05-.26-.11-.33-.06-.07-.16-.11-.29-.11h-.03Z"/>
        <path class="cls-4" d="m42.15,42.05c0,.15-.02.29-.06.41-.04.12-.09.22-.16.3-.07.08-.15.14-.25.18-.1.04-.21.06-.34.06-.25,0-.45-.08-.59-.24-.14-.16-.21-.4-.21-.71,0-.15.02-.29.05-.4.04-.12.09-.22.16-.3.07-.08.15-.14.25-.18.1-.04.21-.06.34-.06s.24.02.34.06c.1.04.18.1.25.18.07.08.12.18.16.3.04.12.06.25.06.4Zm-.36,0c0-.08,0-.15-.03-.22-.02-.07-.05-.13-.08-.19-.04-.05-.08-.1-.14-.13-.06-.03-.12-.05-.19-.05-.06,0-.12.01-.18.04-.05.03-.1.07-.14.12-.04.05-.07.11-.09.18-.02.07-.03.15-.03.23s0,.16.03.23c.02.07.05.13.09.19.04.05.08.09.14.12.05.03.11.04.18.04s.13-.02.18-.05c.06-.03.1-.07.14-.13.04-.05.07-.12.09-.19.02-.07.03-.15.03-.22Z"/>
        <path class="cls-4" d="m43.03,42.92v-1.43h-.28v-.34h.28v-.24c0-.08.02-.15.05-.2.03-.05.07-.1.12-.13.05-.03.09-.05.15-.07.05-.01.09-.02.13-.02.02,0,.05,0,.09,0,.04,0,.07,0,.1,0v.31s-.06,0-.05,0c.01,0,0,0,0,0h-.09c-.09,0-.14.04-.14.14v.2h.21v.34h-.21v1.43h-.36Z"/>
        <path class="cls-4" d="m45.81,42.92v-2.41h1.7v.36h-1.31v.64h1.26v.35h-1.26v.71h1.37v.36h-1.76Z"/>
        <path class="cls-4" d="m48.47,41.16h.34v.14c.14-.13.29-.19.48-.19h.02c.1,0,.18.02.25.04.07.02.13.06.17.1.05.04.08.09.11.14.02.05.04.11.06.18v1.35h-.36v-1.21c0-.09-.03-.15-.08-.2-.05-.05-.12-.07-.21-.07-.13,0-.24.05-.31.14-.07.09-.11.23-.11.41v.93h-.36v-1.76Z"/>
        <path class="cls-4" d="m51.39,41.11c.1,0,.19.03.27.06.08.03.15.07.2.12v-.78h.36v2.41h-.32l-.02-.1s-.11.09-.18.12c-.07.03-.16.05-.26.05h-.01c-.12,0-.23-.02-.33-.06-.1-.04-.18-.11-.25-.19-.07-.08-.12-.18-.16-.3-.04-.12-.06-.26-.06-.41s.02-.28.06-.4c.04-.12.09-.21.16-.29.07-.08.15-.14.24-.18.09-.04.19-.06.29-.06h0Zm-.23,1.41c.07.09.16.14.28.14h.03c.07,0,.13-.02.18-.06.05-.04.09-.08.12-.13.03-.05.05-.11.07-.18.01-.07.02-.13.02-.2,0-.18-.03-.33-.1-.43-.06-.11-.17-.16-.32-.17h-.02c-.13,0-.23.05-.3.15-.07.1-.1.24-.1.42s.04.34.13.47Z"/>
        <path class="cls-4" d="m54.72,42.05c0,.15-.02.29-.05.41-.04.12-.09.22-.16.3-.07.08-.15.14-.25.18-.1.04-.21.06-.34.06-.25,0-.45-.08-.59-.24-.14-.16-.21-.4-.21-.71,0-.15.02-.29.05-.4.04-.12.09-.22.16-.3.07-.08.15-.14.25-.18.1-.04.21-.06.34-.06s.24.02.34.06c.1.04.18.1.25.18.07.08.12.18.16.3.04.12.05.25.05.4Zm-.36,0c0-.08,0-.15-.03-.22-.02-.07-.05-.13-.08-.19-.04-.05-.08-.1-.14-.13-.06-.03-.12-.05-.19-.05-.06,0-.12.01-.18.04-.05.03-.1.07-.14.12-.04.05-.07.11-.09.18-.02.07-.03.15-.03.23s.01.16.03.23c.02.07.05.13.09.19.04.05.08.09.14.12.05.03.11.04.18.04s.13-.02.19-.05c.05-.03.1-.07.14-.13.04-.05.07-.12.09-.19.02-.07.03-.15.03-.22Z"/>
        <path class="cls-4" d="m56,42.92l-.51-1.76h.4l.29,1.16.29-1.16h.4l.27,1.16.31-1.16h.4l-.53,1.76h-.37l-.3-1.13-.28,1.13h-.38Z"/>
        <path class="cls-4" d="m58.72,42.92v-1.76h.34v.14s.08-.07.11-.1c.03-.02.07-.04.1-.06.03-.01.07-.02.12-.03.04,0,.09,0,.14,0,.07,0,.12,0,.17.02.05.01.09.03.12.05.03.02.07.04.09.07.03.03.05.06.08.09h0s0,0,0,0c.02-.03.04-.05.05-.07.01-.02.03-.03.04-.04.01-.01.03-.02.04-.03.02,0,.04-.02.06-.02.04-.02.08-.03.12-.04.04-.01.09-.02.14-.02h.03c.17,0,.31.04.4.12.09.08.14.19.14.34v1.35h-.36v-1.23c-.03-.16-.12-.25-.28-.25-.09,0-.17.03-.22.09-.06.06-.09.13-.11.22v1.17h-.36v-1.24c-.02-.16-.1-.24-.26-.24-.05,0-.09,0-.13.03-.04.02-.08.04-.11.07-.03.03-.06.07-.08.11-.02.04-.03.09-.03.14v1.12h-.36Z"/>
        <path class="cls-4" d="m62.28,42.19h0c0,.09.01.16.04.22.03.06.06.11.11.15.05.04.1.07.16.09.06.02.12.03.18.03.04,0,.08,0,.11,0,.03,0,.06,0,.09-.02.03,0,.05-.02.07-.05.02-.02.05-.05.08-.09h.39c-.08.17-.19.29-.31.37-.12.07-.29.11-.49.11-.12,0-.22-.02-.32-.06-.1-.04-.18-.1-.25-.17-.07-.08-.13-.17-.17-.29-.04-.11-.06-.25-.06-.4v-.02c0-.16.03-.29.07-.41.04-.12.1-.22.18-.3.07-.08.16-.14.25-.18.1-.04.2-.06.3-.06h.03c.12,0,.23.02.31.05.09.04.16.09.21.15.05.06.1.13.13.21.03.08.06.16.07.24.02.08.03.23.05.44h-1.23Zm.42-.77s-.09,0-.13.03c-.04.02-.08.05-.12.08-.04.04-.07.08-.09.14-.03.06-.04.12-.05.19h.82c-.01-.15-.05-.26-.11-.33-.06-.07-.15-.11-.28-.11h-.03Z"/>
        <path class="cls-4" d="m64.37,41.16h.34v.14c.14-.13.29-.19.48-.19h.02c.1,0,.18.02.25.04.07.02.12.06.17.1.04.04.08.09.1.14.03.05.04.11.06.18v1.35h-.36v-1.21c0-.09-.03-.15-.08-.2-.05-.05-.12-.07-.21-.07-.13,0-.24.05-.31.14-.07.09-.11.23-.11.41v.93h-.36v-1.76Z"/>
        <path class="cls-4" d="m67.12,40.71v.45h.26v.34h-.26v1.11s.03.05.1.05c.06,0,.11,0,.16-.03v.33c-.05.02-.1.03-.14.03-.04,0-.08,0-.12,0h-.04s-.08,0-.12-.02c-.04-.02-.07-.04-.1-.06-.03-.03-.05-.06-.07-.09-.02-.04-.03-.07-.03-.11v-1.22h-.23v-.34h.23v-.45h.36Z"/>
        <path class="cls-4" d="m68.47,42.34c0,.11.05.19.12.25.07.06.19.09.35.09.03,0,.05-.01.09-.02.03-.01.06-.02.09-.04.03-.02.05-.04.08-.07.02-.03.03-.06.03-.11,0-.05-.02-.1-.06-.12-.04-.03-.09-.05-.16-.07-.07-.02-.15-.04-.24-.06-.09-.02-.2-.05-.3-.09-.09-.03-.16-.09-.21-.17-.05-.08-.07-.17-.07-.28,0-.08.02-.16.05-.23.03-.07.08-.12.14-.17.06-.05.13-.09.21-.11.08-.03.17-.04.26-.04.44,0,.66.2.66.61h-.35c0-.18-.11-.26-.34-.26-.04,0-.08,0-.11.02-.03.01-.07.03-.09.05-.03.02-.05.04-.07.07-.02.03-.02.05-.02.08,0,.06.04.1.12.13.08.03.19.06.33.09.12.03.22.06.3.09.08.03.14.07.19.1.05.04.08.09.1.14.02.05.03.11.03.19h0c0,.09-.02.17-.05.24-.03.07-.08.13-.14.18-.06.05-.13.09-.21.12-.08.03-.16.05-.25.05h0s-.01,0-.02,0c0,0-.02,0-.02,0h-.04c-.24,0-.41-.06-.53-.17-.11-.11-.17-.28-.17-.5h.34Z"/>
      </g>
    </g>
  </g>
</svg>